<?xml version="1.0" encoding="UTF-8" standalone="no"?>
<!-- Created with Inkscape (http://www.inkscape.org/) -->

<svg
   width="105.83338mm"
   height="52.747494mm"
   viewBox="0 0 105.83338 52.747494"
   version="1.1"
   id="svg1"
   xml:space="preserve"
   inkscape:version="1.4 (86a8ad7, 2024-10-11)"
   sodipodi:docname="Tattoo-legal-logo-traco.svg"
   xmlns:inkscape="http://www.inkscape.org/namespaces/inkscape"
   xmlns:sodipodi="http://sodipodi.sourceforge.net/DTD/sodipodi-0.dtd"
   xmlns="http://www.w3.org/2000/svg"
   xmlns:svg="http://www.w3.org/2000/svg"><sodipodi:namedview
     id="namedview1"
     pagecolor="#ffffff"
     bordercolor="#000000"
     borderopacity="0.25"
     inkscape:showpageshadow="2"
     inkscape:pageopacity="0.0"
     inkscape:pagecheckerboard="0"
     inkscape:deskcolor="#d1d1d1"
     inkscape:document-units="mm"
     showguides="true"
     inkscape:zoom="0.1767767"
     inkscape:cx="834.38598"
     inkscape:cy="4070.1065"
     inkscape:window-width="1280"
     inkscape:window-height="961"
     inkscape:window-x="-8"
     inkscape:window-y="-8"
     inkscape:window-maximized="1"
     inkscape:current-layer="layer3"><inkscape:page
       x="-2.8013849e-23"
       y="0"
       width="105.83338"
       height="52.747494"
       id="page2"
       margin="0"
       bleed="0" /></sodipodi:namedview><defs
     id="defs1" /><g
     inkscape:groupmode="layer"
     id="layer3"
     inkscape:label="Camada 2"
     style="display:inline"
     transform="translate(-31.181384,-713.08143)"><g
       id="g1"
       transform="matrix(0.26388229,0,0,0.26365918,-37.942778,495.17963)"
       inkscape:export-filename="..\tattoo_legal\public\images\logo_tattoo-legal.svg"
       inkscape:export-xdpi="96"
       inkscape:export-ydpi="96"
       style="stroke-width:3.79118"><g
         id="g381"
         transform="rotate(6.8989785,1951.7369,2447.7829)"
         style="stroke-width:3.79118"><g
           id="g456"
           transform="translate(40.411153,438.53584)"
           style="fill:#ffffff;fill-opacity:1;stroke:#ffffff;stroke-width:3.79118;stroke-opacity:1"><g
             id="g455"
             transform="matrix(1.3951453,0,0,1.3951453,117.8473,361.52164)"
             style="fill:#ffffff;fill-opacity:1;stroke:#ffffff;stroke-width:2.71741;stroke-opacity:1"><path
               id="path448"
               style="display:inline;fill:#ffffff;fill-opacity:1;stroke:#ffffff;stroke-width:0.35949;stroke-linecap:square;stroke-linejoin:miter;stroke-dasharray:none;stroke-opacity:1"
               d="m -245.75001,22.068802 c -4.75396,6.518408 -1.45297,34.000276 -1.28486,53.824114 l -3.05296,5.153311 c 1.76178,1.37125 3.66636,2.569645 4.19348,5.435544 1.22488,-2.084994 2.44949,-4.170433 4.27263,-5.154106 -1.20838,-2.836636 -2.60533,-3.838763 -3.97801,-5.07696 -0.005,-15.626557 -3.49556,-41.716305 0.4006,-45.630239 1.92659,-7.048209 13.17453,-5.645797 12.44333,4.138732 0.96973,-2.189667 1.57941,-4.522756 -1.74176,-8.421753 -2.36972,-3.631931 -5.36891,-0.155499 -11.25245,-4.268643 z m -3.90956,18.454424 c -1.56889,0.485921 -2.70314,2.920519 -3.72856,5.844465 -4.60224,5.534395 -2.42273,10.220987 -2.18161,15.149871 0.8869,7.577161 1.72306,15.184869 -0.0347,24.351205 5.27232,-2.228946 7.84896,-11.08498 4.66498,-34.104911 -0.0807,-3.827767 -1.44738,-7.763183 2.37703,-11.263878 -0.27044,-0.06671 -0.52911,-0.081 -0.77723,-0.04754 -0.10847,0.01496 -0.21522,0.03876 -0.31988,0.07078 z m -16.76437,42.672491 c -9.07205,2.343107 -5.54937,23.734383 6.43397,14.384634 4.77954,-6.568123 7.60704,-9.68513 11.08238,-10.904465 -2.78912,0.371938 -5.37549,-0.220516 -8.74429,2.907486 -8.11055,11.290798 -14.9941,-2.631118 -0.61113,-4.463611 -3.16161,-1.866572 -5.72199,-2.38479 -7.71927,-2.020906 -0.15037,0.02737 -0.29767,0.05969 -0.44167,0.09681 z m 51.17754,-6.61911 c -0.26444,0.04284 -0.54261,0.197382 -0.82386,0.479606 4.16996,2.896273 -1.09067,8.912409 -2.78403,9.438006 -6.23878,4.691656 -29.78364,-6.201671 -36.49077,7.846651 12.21364,-7.019571 27.69743,0.678875 34.81028,-2.488366 9.14081,-5.682819 7.84462,-15.69013 5.28838,-15.275897 z" /><g
               id="g454"
               transform="translate(-238.30235,5.66018)"
               style="display:inline;fill:#ffffff;fill-opacity:1;stroke:#ffffff;stroke-width:2.71741;stroke-opacity:1"><g
                 id="g453"
                 transform="translate(-52.01065,-54.255714)"
                 style="fill:#ffffff;fill-opacity:1;stroke:#ffffff;stroke-width:2.71741;stroke-opacity:1"><path
                   id="path449"
                   style="display:inline;fill:#ffffff;fill-opacity:1;stroke:#ffffff;stroke-width:0.35949;stroke-linecap:square;stroke-opacity:1"
                   d="m -126.17647,45.11421 c 3.06445,4.70941 0.1413,5.20557 -1.8309,6.37067 -3.95919,1.83542 -18.71943,-4.85894 -23.13916,-3.51503 -2.9778,-0.1769 -5.46271,0.47813 -6.8833,2.92902 -7.80417,7.22092 -0.629,10.52643 3.29541,13.03435 -11.82495,-9.44879 -1.91316,-13.7516 6.88278,-10.83758 0.0771,-0.0252 0.16142,-0.0428 0.24547,-0.061 -15.81629,14.36371 -2.90767,31.76207 9.57667,33.60983 l 0.93173,-1.65675 c 4.45437,-2.76007 7.07743,-7.35177 9.94151,-11.70212 -4.08713,5.12135 -8.8109,6.90345 -12.8726,6.25801 l -0.24391,-2.57607 1.57458,-2.63653 -2.52646,-2.81895 c -0.26006,-6.51212 -0.45589,-12.91235 0.59841,-17.14624 3.97191,1.21194 8.5556,2.6511 11.88662,1.87844 1.18488,-2.80034 3.38476,-4.59851 4.92734,-5.64565 0.48759,-4.17269 -1.21418,-4.58692 -2.36419,-5.48442 z m 39.92986,0.99994 -6.1097,2.79621 1.55339,2.69234 -3.41736,0.41445 -1.0356,3.00292 c 1.3928,-1.96274 2.99293,-2.06071 4.66018,-1.5534 l 1.76062,19.26136 -2.69286,2.48564 c 3.52571,1.43157 5.08311,4.26933 6.73137,7.04194 -0.16729,-1.32658 -0.35047,-2.65044 0.82837,-4.24625 2.31678,-0.26811 3.98704,-1.82931 3.83181,-7.04143 -4.95233,14.2371 -6.33629,-7.24531 -6.21357,-17.08681 l 2.79621,7.87032 c 0.0618,-4.29331 0.96777,-8.22502 4.86689,-10.87376 l -7.55975,-0.20722 z m -17.13435,2.19677 -6.11023,2.79621 1.5534,2.69234 -3.41736,0.41444 -1.0356,3.00292 c 1.3928,-1.96274 2.99293,-2.06071 4.66018,-1.55339 l 1.76062,19.26136 -2.69235,2.48563 c 3.52571,1.43158 5.0826,4.26934 6.73086,7.04195 -0.16729,-1.32658 -0.35047,-2.65044 0.82837,-4.24625 2.31678,-0.26811 3.98704,-1.82931 3.83181,-7.04143 -4.95233,14.23709 -6.33629,-7.24531 -6.21357,-17.08682 l 2.79621,7.87032 c 0.0618,-4.2933 0.96776,-8.22502 4.86688,-10.87375 l -7.55922,-0.20722 z m 51.30849,3.53983 c -2.33184,1.65505 -4.65429,3.22828 -7.17579,6.5903 2.0618,3.8677 2.27358,8.55761 2.63602,13.18059 l -2.85564,1.24488 6.73654,6.8833 c -0.50178,-2.20456 -0.39818,-4.33356 2.19676,-6.15104 -0.0489,-0.0494 -0.0982,-0.0978 -0.14728,-0.14676 l 0.29353,0.0734 c 11.523,-6.40348 -0.93167,-18.60363 3.2954,-20.79615 l -4.90616,-0.65887 -0.79892,0.9741 z m -17.13487,0.29301 c -2.33184,1.65505 -4.65429,3.22828 -7.17579,6.59029 2.0618,3.86771 2.27358,8.55761 2.63602,13.18059 l -2.85564,1.24489 6.73654,6.8833 c -0.50178,-2.20457 -0.39818,-4.33357 2.19676,-6.15105 -0.0489,-0.0495 -0.0982,-0.0978 -0.14728,-0.14676 l 0.29353,0.0734 c 11.523,-6.40347 -0.93167,-18.60362 3.2954,-20.79614 l -4.90616,-0.65888 -0.79892,0.9741 z m -77.54772,0.81183 c 0.0361,4e-4 0.0772,0.005 0.1142,0.007 l -0.0139,0.0263 h -0.66973 c 0.17905,-0.0216 0.36611,-0.0353 0.56948,-0.0331 z m 3.64267,0.68575 c 0.39171,0.10784 0.77572,0.20996 1.18959,0.3328 l -0.18035,17.68419 -1.5012,3.11247 2.41639,1.39113 -0.10181,3.0949 c -2.35752,-0.69254 -4.42555,-2.23092 -5.91591,-4.42195 l 4.516,-5.38055 z m -3.59152,1.37873 0.003,0.002 -0.0103,0.0145 c 0.003,-0.005 0.005,-0.0107 0.008,-0.016 z m -0.0232,0.0475 c 1.38601,7.49794 1.64062,14.14771 -1.27485,18.41955 -2.31379,-4.48469 -2.47651,-11.04066 1.27485,-18.41955 z m 92.36439,0.74827 4.34082,0.57464 -2.19676,1.53789 c 3.00557,6.12106 2.00592,10.50066 0.80047,14.79083 -2.13836,-2.16425 -4.07497,-4.93269 -2.94453,-16.90336 z m -17.13487,0.29301 4.34082,0.57464 -2.19676,1.53789 c 3.00557,6.12105 2.00591,10.50065 0.80046,14.79083 -2.13836,-2.16426 -4.07496,-4.9327 -2.94452,-16.90336 z m -51.586,2.37815 c -1.55608,1.48908 -2.87526,2.02994 -4.24728,2.78277 3.18014,1.52836 6.54308,2.81327 6.8833,8.12819 0.0678,-2.90188 -0.48428,-5.49399 -1.97714,-7.61556 l 4.90616,1.24489 -2.05052,0.65887 c 1.71262,4.80355 2.35586,9.29521 -0.5855,12.74134 2.15375,1.5068 4.21052,3.53015 5.78466,8.12819 l 0.51263,-2.85616 c 4.31645,-2.11763 3.01517,-4.51608 3.80752,-6.80992 -4.34712,10.83715 -6.00233,-6.54726 -4.7594,-14.79134 -3.9071,-0.15401 -6.08066,-0.88616 -8.27443,-1.61127 z m 0.8785,6.73705 c -1.11042,1.73344 -2.50723,2.73027 -4.10052,3.22203 2.14773,1.47421 -0.6475,4.77512 1.09812,7.17579 l -2.69906,1.82159 c 4.8982,3.11756 4.29526,5.21675 5.85081,7.71529 l 0.41444,-2.89956 c 1.60368,-0.38037 2.84415,-1.40614 3.21014,-3.98684 -3.61891,3.8352 -4.2788,-2.58774 -3.77393,-13.0483 z"
                   transform="translate(238.30235,-5.66018)" /><g
                   id="g451"
                   transform="translate(0.02914894,0.36399991)"
                   style="display:inline;fill:#ffffff;fill-opacity:1;stroke:#ffffff;stroke-width:2.71741;stroke-opacity:1"><path
                     id="path450"
                     style="fill:#ffffff;fill-opacity:1;stroke:#ffffff;stroke-width:0.35949;stroke-linecap:square;stroke-opacity:1"
                     d="m 87.867814,97.653786 -4.142383,5.643584 c 2.330021,1.81924 4.66025,1.89439 6.990271,1.81229 l -3.106787,0.67335 c 2.779046,2.66417 -0.846294,4.92037 1.035596,9.31984 -2.611223,0.83752 -4.039136,3.21391 -5.420858,5.64978 l -6.922575,-13.98984 c 1.463884,4.97245 3.234437,8.96881 2.636015,20.50314 l -3.515031,0.29301 c 6.66352,1.96394 8.068986,7.16358 9.812321,12.15533 l 0.586011,-4.24729 c 8.14536,2.09141 12.535587,-4.73487 15.032676,-15.45539 -9.629452,18.86957 -24.273856,7.56009 -11.963096,-2.42052 l -1.160653,0.70487 c 0.463348,-0.29688 0.926518,-0.59305 1.388546,-0.88729 -0.07699,0.0607 -0.152913,0.12163 -0.227893,0.18242 l 6.010485,-3.65197 c -0.309545,0.14422 -0.609055,0.28993 -0.903304,0.43666 0.28713,-0.1725 0.575402,-0.34694 0.860413,-0.51521 -0.351216,-5.32692 -0.819787,-10.71914 1.242818,-14.705046 -3.459909,0.930796 -6.008748,0.03965 -8.232572,-1.501718 z"
                     sodipodi:nodetypes="ccccccccccccccccccccc" /><path
                     style="fill:#ffffff;fill-opacity:1;stroke:#ffffff;stroke-width:0.35949;stroke-linecap:square;stroke-opacity:1"
                     d="m 76.217573,106.87029 c 4.445412,-1.86677 8.513833,-4.62889 11.857217,-9.11297 l -4.245816,5.59205 c 1.166444,5.32156 0.282328,11.60005 -0.569561,17.8635 z"
                     id="path451"
                     sodipodi:nodetypes="ccccc" /></g><g
                   id="g452"
                   transform="translate(0.41131046,0.36048995)"
                   style="display:inline;fill:#ffffff;fill-opacity:1;stroke:#ffffff;stroke-width:2.71741;stroke-opacity:1"><path
                     id="path452"
                     style="display:inline;fill:#ffffff;fill-opacity:1;stroke:#ffffff;stroke-width:0.35949;stroke-linecap:square;stroke-opacity:1"
                     d="m 114.03028,96.303891 -0.26717,0.30334 -10.93163,8.502839 c 5.12815,3.51124 1.60265,11.34912 2.07119,17.19017 l -2.48512,4.34909 c 3.56087,2.3208 5.87369,6.76296 8.07703,11.39155 -0.59081,-2.863 1.46107,-6.07384 5.60328,-9.55963 l 0.58342,-0.43924 c 2.66969,7.97909 1.02201,13.74903 -1.6216,19.00969 -3.99989,-5.50638 -11.01255,-8.1479 -8.65322,-14.35882 -12.895081,5.43942 5.2778,17.23241 6.31434,23.75979 l 12.86227,-13.09584 c -0.46507,-0.67999 -0.93021,-1.41354 -1.39527,-2.18023 l -0.48937,-0.86868 c 0.0145,0.0426 0.03,0.0844 0.045,0.12661 -0.71559,-1.21511 -1.43156,-2.51771 -2.14715,-3.85558 l 2.1022,3.72897 c -1.85346,-5.4272 -0.38889,-14.08217 -2.512,-27.39987 -0.30013,-7.0232 -1.10471,-14.999236 1.63711,-16.276531 -1.88416,0.795003 -3.18672,2.092153 -8.79326,-0.327628 z m -3.77548,5.518529 c 2.47577,1.47806 4.46961,1.70286 6.20789,1.26349 l -1.87069,2.05775 c 3.52217,9.9811 1.00077,17.11835 -1.26813,24.37422 l -0.0915,0.0946 c -0.74225,-3.20898 -1.59079,-6.29656 -3.25562,-8.45116 -0.68843,-5.78322 1.64552,-16.18081 0.27802,-19.33887 z"
                     sodipodi:nodetypes="cccccccccccccccccccccccccccsc" /></g><path
                   id="path453"
                   style="fill:#ffffff;fill-opacity:1;stroke:#ffffff;stroke-width:0.35949;stroke-linecap:square;stroke-opacity:1"
                   d="m 167.36404,77.498568 c -0.14691,0.0197 -0.26476,0.180791 -0.36121,0.443901 l 0.50539,-0.42478 c -0.0507,-0.019 -0.0986,-0.02523 -0.14418,-0.01912 z m -0.36121,0.443901 -7.26106,6.099369 c 4.11531,6.40737 4.23664,24.297342 6.31693,36.555392 l -3.10679,3.10679 c 3.83159,2.62473 7.66332,4.17922 11.49491,13.15165 l 0.10335,-4.97076 c 5.56305,-5.61233 5.60398,-9.52549 4.03851,-12.94443 -0.21762,3.57735 -0.78526,6.73414 -3.72794,7.04143 -3.08242,1.24893 -9.64627,-43.160908 -7.85791,-48.039441 z m -29.89585,17.30592 c -2.36993,2.264733 -4.37874,3.086815 -6.46834,4.231783 4.84338,2.324458 9.96492,4.278118 10.48308,12.361518 0.10318,-4.41342 -0.73703,-8.35558 -3.01067,-11.58224 l 7.47189,1.89343 -3.1228,1.00252 c 2.60834,7.30565 3.58778,14.13645 -0.89194,19.37763 3.28018,2.29166 6.41289,5.36893 8.81032,12.36203 l 0.78031,-4.3434 c 6.574,-3.22068 4.59289,-6.86833 5.79965,-10.35699 -6.62071,16.48206 -9.14217,-9.95799 -7.24917,-22.496301 -5.95056,-0.234228 -9.2612,-1.347158 -12.60233,-2.44998 z m 1.33842,10.245371 c -1.69118,2.63636 -3.81851,4.15256 -6.2451,4.90047 3.27101,2.24211 -0.98583,7.26293 1.67277,10.91407 l -4.11138,2.77037 c 7.46002,4.74145 6.54196,7.93364 8.91108,11.73365 l 0.63097,-4.41007 c 2.44242,-0.57849 4.3317,-2.13824 4.88911,-6.06319 -5.51164,5.8329 -6.51637,-3.93597 -5.74745,-19.8453 z" /></g></g></g></g><path
           id="path371"
           style="display:inline;fill:#ffffff;fill-opacity:1;stroke:#ffffff;stroke-width:0.501542;stroke-linecap:square;stroke-dasharray:none;stroke-opacity:1"
           d="m 67.183986,789.86233 c -2.892031,0.79503 -4.847019,3.37414 -5.014718,6.22502 -0.467941,0.0914 -1.01639,0.2065 -1.621057,0.34753 l -3.27887,-1.85602 c -0.820481,-0.39379 -1.507113,-0.43239 -2.042089,-0.24628 -1.604914,0.55831 -1.844109,3.13851 -0.233179,4.21278 l 7.795248,4.43352 -1.865056,2.93406 c -3.212386,-2.08861 -4.196834,-0.54984 -5.232834,0.90472 l -9.418026,16.55927 c -1.606487,2.30388 -1.422891,4.33519 1.443776,5.95769 l -1.675726,3.01063 -1.598296,-0.90313 1.231302,-2.12798 -3.96719,-2.25632 -0.707016,1.30963 -7.199636,-4.13259 1.504092,-2.64458 -3.889456,-2.32646 -2.119295,3.6176 -2.45811,-1.38921 c -2.961309,-1.44905 -4.385921,2.50773 -2.269153,3.92247 l 2.43204,1.38405 -2.089394,3.5665 3.914255,2.41666 1.659542,-2.78485 7.105203,3.96456 -0.335063,0.7229 2.300307,1.37472 -3.368157,-1.90597 c -1.523332,-0.8429 -2.842093,-1.05309 -3.989844,-0.73233 -1.475811,0.41193 -2.66799,1.70275 -3.646249,3.65631 l -11.91589,20.88386 c -3.032549,4.45146 -1.050496,6.95021 2.655716,8.77742 l 4.151805,2.39958 c 4.991535,2.8601 6.740488,0.42063 8.27356,-2.37138 l 11.531294,-20.38208 c 2.403343,-3.31749 3.097849,-6.42686 -1.218956,-8.92587 l -0.803549,-0.45492 0.918802,-1.58812 32.620587,18.56296 2.219833,-3.90302 c -1.079675,-0.99017 -1.435551,-2.15593 -0.51787,-3.63063 l 13.920212,-24.4752 c 0.768155,-1.69745 1.909778,-2.03639 3.338901,-1.32947 l 2.376106,-4.08319 -2.164167,-1.22456 c 1.528913,-1.57927 1.068383,-2.74364 -0.258593,-3.72655 l -3.482463,-1.90455 c -2.026265,-0.33154 -2.522477,1.03543 -2.65278,2.01228 l -15.832893,-8.9612 c 2.317974,-1.00299 3.867466,-3.21748 4.099991,-5.667 l 4.737624,-1.39406 -1.17774,-4.28421 -4.721165,1.25119 c -1.602517,-2.35977 -4.576644,-3.59047 -7.465736,-2.79626 z m 1.051994,3.82679 c 1.556315,-0.42784 3.111184,0.4565 3.539015,2.0128 0.427836,1.55632 -0.455939,3.11319 -2.012252,3.54103 -1.556318,0.42782 -3.113729,-0.45795 -3.541564,-2.01427 -0.427833,-1.55631 0.458487,-3.11173 2.014801,-3.53956 z m -1.495352,11.53709 9.880166,5.6193 -1.965804,3.092 c -3.212388,-2.08862 -4.196839,-0.54983 -5.232837,0.90473 l -9.418025,16.55926 c -1.606486,2.30389 -1.422889,4.3352 1.443772,5.95768 l -1.564174,2.81008 -9.89357,-5.59204 1.67416,-2.88373 c 2.624829,2.09926 4.201602,0.89825 5.473865,-1.262 l 9.213762,-16.06632 c 1.517736,-2.75432 1.267417,-4.82308 -1.263405,-6.00727 z m 13.818128,7.85902 5.799901,3.29867 -16.762416,29.27444 -5.759519,-3.25511 1.558308,-2.6852 c 2.624825,2.09924 4.2016,0.89825 5.473861,-1.26201 l 9.213765,-16.06631 c 1.517736,-2.75432 1.267417,-4.82308 -1.263402,-6.00727 z m -63.30649,55.02308 -7.3013634,12.74301 5.5731164,3.30422 7.283827,-12.8068 z m -7.075207,15.56202 -2.7692006,4.77435 -2.5510475,7.93856 5.3451661,-6.13418 2.821038,-4.96009 z" /></g><path
         id="circle1"
         style="fill:none;stroke:#ffffff;stroke-width:25.077;stroke-linecap:round;stroke-linejoin:round"
         d="m 329.51056,721.5012 c -40.44526,56.54919 -109.78486,93.84261 -188.53376,93.84261 -77.998141,0 -146.7655313,-36.58573 -187.36912,-92.23051"
         sodipodi:nodetypes="csc" /></g><g
       id="g37"
       transform="matrix(0.31997358,0.03866454,-0.03871527,0.3195543,137.78473,465.22613)"
       inkscape:export-filename="..\tattoo_legal\public\tattoo_legal\public\images\logo_tattoo-legal.svg"
       inkscape:export-xdpi="96"
       inkscape:export-ydpi="96"
       style="stroke-width:3.10466"><g
         id="g19"
         transform="translate(40.411153,438.53584)"
         style="fill:#ffffff;fill-opacity:1;stroke:#ffffff;stroke-width:3.10466;stroke-opacity:1"><g
           id="g18"
           transform="matrix(1.3951453,0,0,1.3951453,117.8473,361.52164)"
           style="fill:#ffffff;fill-opacity:1;stroke:#ffffff;stroke-width:2.22533;stroke-opacity:1"><path
             id="path10"
             style="display:inline;fill:#ffffff;fill-opacity:1;stroke:#ffffff;stroke-width:0.294393;stroke-linecap:square;stroke-linejoin:miter;stroke-dasharray:none;stroke-opacity:1"
             d="m -245.75001,22.068802 c -4.75396,6.518408 -1.45297,34.000276 -1.28486,53.824114 l -3.05296,5.153311 c 1.76178,1.37125 3.66636,2.569645 4.19348,5.435544 1.22488,-2.084994 2.44949,-4.170433 4.27263,-5.154106 -1.20838,-2.836636 -2.60533,-3.838763 -3.97801,-5.07696 -0.005,-15.626557 -3.49556,-41.716305 0.4006,-45.630239 1.92659,-7.048209 13.17453,-5.645797 12.44333,4.138732 0.96973,-2.189667 1.57941,-4.522756 -1.74176,-8.421753 -2.36972,-3.631931 -5.36891,-0.155499 -11.25245,-4.268643 z m -3.90956,18.454424 c -1.56889,0.485921 -2.70314,2.920519 -3.72856,5.844465 -4.60224,5.534395 -2.42273,10.220987 -2.18161,15.149871 0.8869,7.577161 1.72306,15.184869 -0.0347,24.351205 5.27232,-2.228946 7.84896,-11.08498 4.66498,-34.104911 -0.0807,-3.827767 -1.44738,-7.763183 2.37703,-11.263878 -0.27044,-0.06671 -0.52911,-0.081 -0.77723,-0.04754 -0.10847,0.01496 -0.21522,0.03876 -0.31988,0.07078 z m -16.76437,42.672491 c -9.07205,2.343107 -5.54937,23.734383 6.43397,14.384634 4.77954,-6.568123 7.60704,-9.68513 11.08238,-10.904465 -2.78912,0.371938 -5.37549,-0.220516 -8.74429,2.907486 -8.11055,11.290798 -14.9941,-2.631118 -0.61113,-4.463611 -3.16161,-1.866572 -5.72199,-2.38479 -7.71927,-2.020906 -0.15037,0.02737 -0.29767,0.05969 -0.44167,0.09681 z m 51.17754,-6.61911 c -0.26444,0.04284 -0.54261,0.197382 -0.82386,0.479606 4.16996,2.896273 -1.09067,8.912409 -2.78403,9.438006 -6.23878,4.691656 -29.78364,-6.201671 -36.49077,7.846651 12.21364,-7.019571 27.69743,0.678875 34.81028,-2.488366 9.14081,-5.682819 7.84462,-15.69013 5.28838,-15.275897 z" /><g
             id="g16"
             transform="translate(-238.30235,5.66018)"
             style="display:inline;fill:#ffffff;fill-opacity:1;stroke:#ffffff;stroke-width:2.22533;stroke-opacity:1"><g
               id="g15"
               transform="translate(-52.01065,-54.255714)"
               style="fill:#ffffff;fill-opacity:1;stroke:#ffffff;stroke-width:2.22533;stroke-opacity:1"><path
                 id="path11"
                 style="display:inline;fill:#ffffff;fill-opacity:1;stroke:#ffffff;stroke-width:0.294393;stroke-linecap:square;stroke-opacity:1"
                 d="m -126.17647,45.11421 c 3.06445,4.70941 0.1413,5.20557 -1.8309,6.37067 -3.95919,1.83542 -18.71943,-4.85894 -23.13916,-3.51503 -2.9778,-0.1769 -5.46271,0.47813 -6.8833,2.92902 -7.80417,7.22092 -0.629,10.52643 3.29541,13.03435 -11.82495,-9.44879 -1.91316,-13.7516 6.88278,-10.83758 0.0771,-0.0252 0.16142,-0.0428 0.24547,-0.061 -15.81629,14.36371 -2.90767,31.76207 9.57667,33.60983 l 0.93173,-1.65675 c 4.45437,-2.76007 7.07743,-7.35177 9.94151,-11.70212 -4.08713,5.12135 -8.8109,6.90345 -12.8726,6.25801 l -0.24391,-2.57607 1.57458,-2.63653 -2.52646,-2.81895 c -0.26006,-6.51212 -0.45589,-12.91235 0.59841,-17.14624 3.97191,1.21194 8.5556,2.6511 11.88662,1.87844 1.18488,-2.80034 3.38476,-4.59851 4.92734,-5.64565 0.48759,-4.17269 -1.21418,-4.58692 -2.36419,-5.48442 z m 39.92986,0.99994 -6.1097,2.79621 1.55339,2.69234 -3.41736,0.41445 -1.0356,3.00292 c 1.3928,-1.96274 2.99293,-2.06071 4.66018,-1.5534 l 1.76062,19.26136 -2.69286,2.48564 c 3.52571,1.43157 5.08311,4.26933 6.73137,7.04194 -0.16729,-1.32658 -0.35047,-2.65044 0.82837,-4.24625 2.31678,-0.26811 3.98704,-1.82931 3.83181,-7.04143 -4.95233,14.2371 -6.33629,-7.24531 -6.21357,-17.08681 l 2.79621,7.87032 c 0.0618,-4.29331 0.96777,-8.22502 4.86689,-10.87376 l -7.55975,-0.20722 z m -17.13435,2.19677 -6.11023,2.79621 1.5534,2.69234 -3.41736,0.41444 -1.0356,3.00292 c 1.3928,-1.96274 2.99293,-2.06071 4.66018,-1.55339 l 1.76062,19.26136 -2.69235,2.48563 c 3.52571,1.43158 5.0826,4.26934 6.73086,7.04195 -0.16729,-1.32658 -0.35047,-2.65044 0.82837,-4.24625 2.31678,-0.26811 3.98704,-1.82931 3.83181,-7.04143 -4.95233,14.23709 -6.33629,-7.24531 -6.21357,-17.08682 l 2.79621,7.87032 c 0.0618,-4.2933 0.96776,-8.22502 4.86688,-10.87375 l -7.55922,-0.20722 z m 51.30849,3.53983 c -2.33184,1.65505 -4.65429,3.22828 -7.17579,6.5903 2.0618,3.8677 2.27358,8.55761 2.63602,13.18059 l -2.85564,1.24488 6.73654,6.8833 c -0.50178,-2.20456 -0.39818,-4.33356 2.19676,-6.15104 -0.0489,-0.0494 -0.0982,-0.0978 -0.14728,-0.14676 l 0.29353,0.0734 c 11.523,-6.40348 -0.93167,-18.60363 3.2954,-20.79615 l -4.90616,-0.65887 -0.79892,0.9741 z m -17.13487,0.29301 c -2.33184,1.65505 -4.65429,3.22828 -7.17579,6.59029 2.0618,3.86771 2.27358,8.55761 2.63602,13.18059 l -2.85564,1.24489 6.73654,6.8833 c -0.50178,-2.20457 -0.39818,-4.33357 2.19676,-6.15105 -0.0489,-0.0495 -0.0982,-0.0978 -0.14728,-0.14676 l 0.29353,0.0734 c 11.523,-6.40347 -0.93167,-18.60362 3.2954,-20.79614 l -4.90616,-0.65888 -0.79892,0.9741 z m -77.54772,0.81183 c 0.0361,4e-4 0.0772,0.005 0.1142,0.007 l -0.0139,0.0263 h -0.66973 c 0.17905,-0.0216 0.36611,-0.0353 0.56948,-0.0331 z m 3.64267,0.68575 c 0.39171,0.10784 0.77572,0.20996 1.18959,0.3328 l -0.18035,17.68419 -1.5012,3.11247 2.41639,1.39113 -0.10181,3.0949 c -2.35752,-0.69254 -4.42555,-2.23092 -5.91591,-4.42195 l 4.516,-5.38055 z m -3.59152,1.37873 0.003,0.002 -0.0103,0.0145 c 0.003,-0.005 0.005,-0.0107 0.008,-0.016 z m -0.0232,0.0475 c 1.38601,7.49794 1.64062,14.14771 -1.27485,18.41955 -2.31379,-4.48469 -2.47651,-11.04066 1.27485,-18.41955 z m 92.36439,0.74827 4.34082,0.57464 -2.19676,1.53789 c 3.00557,6.12106 2.00592,10.50066 0.80047,14.79083 -2.13836,-2.16425 -4.07497,-4.93269 -2.94453,-16.90336 z m -17.13487,0.29301 4.34082,0.57464 -2.19676,1.53789 c 3.00557,6.12105 2.00591,10.50065 0.80046,14.79083 -2.13836,-2.16426 -4.07496,-4.9327 -2.94452,-16.90336 z m -51.586,2.37815 c -1.55608,1.48908 -2.87526,2.02994 -4.24728,2.78277 3.18014,1.52836 6.54308,2.81327 6.8833,8.12819 0.0678,-2.90188 -0.48428,-5.49399 -1.97714,-7.61556 l 4.90616,1.24489 -2.05052,0.65887 c 1.71262,4.80355 2.35586,9.29521 -0.5855,12.74134 2.15375,1.5068 4.21052,3.53015 5.78466,8.12819 l 0.51263,-2.85616 c 4.31645,-2.11763 3.01517,-4.51608 3.80752,-6.80992 -4.34712,10.83715 -6.00233,-6.54726 -4.7594,-14.79134 -3.9071,-0.15401 -6.08066,-0.88616 -8.27443,-1.61127 z m 0.8785,6.73705 c -1.11042,1.73344 -2.50723,2.73027 -4.10052,3.22203 2.14773,1.47421 -0.6475,4.77512 1.09812,7.17579 l -2.69906,1.82159 c 4.8982,3.11756 4.29526,5.21675 5.85081,7.71529 l 0.41444,-2.89956 c 1.60368,-0.38037 2.84415,-1.40614 3.21014,-3.98684 -3.61891,3.8352 -4.2788,-2.58774 -3.77393,-13.0483 z"
                 transform="translate(238.30235,-5.66018)" /><g
                 id="g13"
                 transform="translate(0.02914894,0.36399991)"
                 style="display:inline;fill:#ffffff;fill-opacity:1;stroke:#ffffff;stroke-width:2.22533;stroke-opacity:1"><path
                   id="path12"
                   style="fill:#ffffff;fill-opacity:1;stroke:#ffffff;stroke-width:0.294393;stroke-linecap:square;stroke-opacity:1"
                   d="m 87.867814,97.653786 -4.142383,5.643584 c 2.330021,1.81924 4.66025,1.89439 6.990271,1.81229 l -3.106787,0.67335 c 2.779046,2.66417 -0.846294,4.92037 1.035596,9.31984 -2.611223,0.83752 -4.039136,3.21391 -5.420858,5.64978 l -6.922575,-13.98984 c 1.463884,4.97245 3.234437,8.96881 2.636015,20.50314 l -3.515031,0.29301 c 6.66352,1.96394 8.068986,7.16358 9.812321,12.15533 l 0.586011,-4.24729 c 8.14536,2.09141 12.535587,-4.73487 15.032676,-15.45539 -9.629452,18.86957 -24.273856,7.56009 -11.963096,-2.42052 l -1.160653,0.70487 c 0.463348,-0.29688 0.926518,-0.59305 1.388546,-0.88729 -0.07699,0.0607 -0.152913,0.12163 -0.227893,0.18242 l 6.010485,-3.65197 c -0.309545,0.14422 -0.609055,0.28993 -0.903304,0.43666 0.28713,-0.1725 0.575402,-0.34694 0.860413,-0.51521 -0.351216,-5.32692 -0.819787,-10.71914 1.242818,-14.705046 -3.459909,0.930796 -6.008748,0.03965 -8.232572,-1.501718 z"
                   sodipodi:nodetypes="ccccccccccccccccccccc" /><path
                   style="fill:#ffffff;fill-opacity:1;stroke:#ffffff;stroke-width:0.294393;stroke-linecap:square;stroke-opacity:1"
                   d="m 76.217573,106.87029 c 4.445412,-1.86677 8.513833,-4.62889 11.857217,-9.11297 l -4.245816,5.59205 c 1.166444,5.32156 0.282328,11.60005 -0.569561,17.8635 z"
                   id="path13"
                   sodipodi:nodetypes="ccccc" /></g><g
                 id="g14"
                 transform="translate(0.41131046,0.36048995)"
                 style="display:inline;fill:#ffffff;fill-opacity:1;stroke:#ffffff;stroke-width:2.22533;stroke-opacity:1"><path
                   id="path14"
                   style="display:inline;fill:#ffffff;fill-opacity:1;stroke:#ffffff;stroke-width:0.294393;stroke-linecap:square;stroke-opacity:1"
                   d="m 114.03028,96.303891 -0.26717,0.30334 -10.93163,8.502839 c 5.12815,3.51124 1.60265,11.34912 2.07119,17.19017 l -2.48512,4.34909 c 3.56087,2.3208 5.87369,6.76296 8.07703,11.39155 -0.59081,-2.863 1.46107,-6.07384 5.60328,-9.55963 l 0.58342,-0.43924 c 2.66969,7.97909 1.02201,13.74903 -1.6216,19.00969 -3.99989,-5.50638 -11.01255,-8.1479 -8.65322,-14.35882 -12.895081,5.43942 5.2778,17.23241 6.31434,23.75979 l 12.86227,-13.09584 c -0.46507,-0.67999 -0.93021,-1.41354 -1.39527,-2.18023 l -0.48937,-0.86868 c 0.0145,0.0426 0.03,0.0844 0.045,0.12661 -0.71559,-1.21511 -1.43156,-2.51771 -2.14715,-3.85558 l 2.1022,3.72897 c -1.85346,-5.4272 -0.38889,-14.08217 -2.512,-27.39987 -0.30013,-7.0232 -1.10471,-14.999236 1.63711,-16.276531 -1.88416,0.795003 -3.18672,2.092153 -8.79326,-0.327628 z m -3.77548,5.518529 c 2.47577,1.47806 4.46961,1.70286 6.20789,1.26349 l -1.87069,2.05775 c 3.52217,9.9811 1.00077,17.11835 -1.26813,24.37422 l -0.0915,0.0946 c -0.74225,-3.20898 -1.59079,-6.29656 -3.25562,-8.45116 -0.68843,-5.78322 1.64552,-16.18081 0.27802,-19.33887 z"
                   sodipodi:nodetypes="cccccccccccccccccccccccccccsc" /></g><path
                 id="path15"
                 style="fill:#ffffff;fill-opacity:1;stroke:#ffffff;stroke-width:0.294393;stroke-linecap:square;stroke-opacity:1"
                 d="m 167.36404,77.498568 c -0.14691,0.0197 -0.26476,0.180791 -0.36121,0.443901 l 0.50539,-0.42478 c -0.0507,-0.019 -0.0986,-0.02523 -0.14418,-0.01912 z m -0.36121,0.443901 -7.26106,6.099369 c 4.11531,6.40737 4.23664,24.297342 6.31693,36.555392 l -3.10679,3.10679 c 3.83159,2.62473 7.66332,4.17922 11.49491,13.15165 l 0.10335,-4.97076 c 5.56305,-5.61233 5.60398,-9.52549 4.03851,-12.94443 -0.21762,3.57735 -0.78526,6.73414 -3.72794,7.04143 -3.08242,1.24893 -9.64627,-43.160908 -7.85791,-48.039441 z m -29.89585,17.30592 c -2.36993,2.264733 -4.37874,3.086815 -6.46834,4.231783 4.84338,2.324458 9.96492,4.278118 10.48308,12.361518 0.10318,-4.41342 -0.73703,-8.35558 -3.01067,-11.58224 l 7.47189,1.89343 -3.1228,1.00252 c 2.60834,7.30565 3.58778,14.13645 -0.89194,19.37763 3.28018,2.29166 6.41289,5.36893 8.81032,12.36203 l 0.78031,-4.3434 c 6.574,-3.22068 4.59289,-6.86833 5.79965,-10.35699 -6.62071,16.48206 -9.14217,-9.95799 -7.24917,-22.496301 -5.95056,-0.234228 -9.2612,-1.347158 -12.60233,-2.44998 z m 1.33842,10.245371 c -1.69118,2.63636 -3.81851,4.15256 -6.2451,4.90047 3.27101,2.24211 -0.98583,7.26293 1.67277,10.91407 l -4.11138,2.77037 c 7.46002,4.74145 6.54196,7.93364 8.91108,11.73365 l 0.63097,-4.41007 c 2.44242,-0.57849 4.3317,-2.13824 4.88911,-6.06319 -5.51164,5.8329 -6.51637,-3.93597 -5.74745,-19.8453 z" /></g></g></g></g><path
         id="path34"
         style="display:inline;fill:#ffffff;fill-opacity:1;stroke:#ffffff;stroke-width:0.410722;stroke-linecap:square;stroke-dasharray:none;stroke-opacity:1"
         d="m 67.183986,789.86233 c -2.892031,0.79503 -4.847019,3.37414 -5.014718,6.22502 -0.467941,0.0914 -1.01639,0.2065 -1.621057,0.34753 l -3.27887,-1.85602 c -0.820481,-0.39379 -1.507113,-0.43239 -2.042089,-0.24628 -1.604914,0.55831 -1.844109,3.13851 -0.233179,4.21278 l 7.795248,4.43352 -1.865056,2.93406 c -3.212386,-2.08861 -4.196834,-0.54984 -5.232834,0.90472 l -9.418026,16.55927 c -1.606487,2.30388 -1.422891,4.33519 1.443776,5.95769 l -1.675726,3.01063 -1.598296,-0.90313 1.231302,-2.12798 -3.96719,-2.25632 -0.707016,1.30963 -7.199636,-4.13259 1.504092,-2.64458 -3.889456,-2.32646 -2.119295,3.6176 -2.45811,-1.38921 c -2.961309,-1.44905 -4.385921,2.50773 -2.269153,3.92247 l 2.43204,1.38405 -2.089394,3.5665 3.914255,2.41666 1.659542,-2.78485 7.105203,3.96456 -0.335063,0.7229 2.300307,1.37472 -3.368157,-1.90597 c -1.523332,-0.8429 -2.842093,-1.05309 -3.989844,-0.73233 -1.475811,0.41193 -2.66799,1.70275 -3.646249,3.65631 l -11.91589,20.88386 c -3.032549,4.45146 -1.050496,6.95021 2.655716,8.77742 l 4.151805,2.39958 c 4.991535,2.8601 6.740488,0.42063 8.27356,-2.37138 l 11.531294,-20.38208 c 2.403343,-3.31749 3.097849,-6.42686 -1.218956,-8.92587 l -0.803549,-0.45492 0.918802,-1.58812 32.620587,18.56296 2.219833,-3.90302 c -1.079675,-0.99017 -1.435551,-2.15593 -0.51787,-3.63063 l 13.920212,-24.4752 c 0.768155,-1.69745 1.909778,-2.03639 3.338901,-1.32947 l 2.376106,-4.08319 -2.164167,-1.22456 c 1.528913,-1.57927 1.068383,-2.74364 -0.258593,-3.72655 l -3.482463,-1.90455 c -2.026265,-0.33154 -2.522477,1.03543 -2.65278,2.01228 l -15.832893,-8.9612 c 2.317974,-1.00299 3.867466,-3.21748 4.099991,-5.667 l 4.737624,-1.39406 -1.17774,-4.28421 -4.721165,1.25119 c -1.602517,-2.35977 -4.576644,-3.59047 -7.465736,-2.79626 z m 1.051994,3.82679 c 1.556315,-0.42784 3.111184,0.4565 3.539015,2.0128 0.427836,1.55632 -0.455939,3.11319 -2.012252,3.54103 -1.556318,0.42782 -3.113729,-0.45795 -3.541564,-2.01427 -0.427833,-1.55631 0.458487,-3.11173 2.014801,-3.53956 z m -1.495352,11.53709 9.880166,5.6193 -1.965804,3.092 c -3.212388,-2.08862 -4.196839,-0.54983 -5.232837,0.90473 l -9.418025,16.55926 c -1.606486,2.30389 -1.422889,4.3352 1.443772,5.95768 l -1.564174,2.81008 -9.89357,-5.59204 1.67416,-2.88373 c 2.624829,2.09926 4.201602,0.89825 5.473865,-1.262 l 9.213762,-16.06632 c 1.517736,-2.75432 1.267417,-4.82308 -1.263405,-6.00727 z m 13.818128,7.85902 5.799901,3.29867 -16.762416,29.27444 -5.759519,-3.25511 1.558308,-2.6852 c 2.624825,2.09924 4.2016,0.89825 5.473861,-1.26201 l 9.213765,-16.06631 c 1.517736,-2.75432 1.267417,-4.82308 -1.263402,-6.00727 z m -63.30649,55.02308 -7.3013634,12.74301 5.5731164,3.30422 7.283827,-12.8068 z m -7.075207,15.56202 -2.7692006,4.77435 -2.5510475,7.93856 5.3451661,-6.13418 2.821038,-4.96009 z" /></g></g></svg>
