<?xml version="1.0" encoding="UTF-8" standalone="no"?>
<!-- Created with Inkscape (http://www.inkscape.org/) -->

<svg
   width="35.85104mm"
   height="13.596401mm"
   viewBox="0 0 35.85104 13.596401"
   version="1.1"
   id="svg1"
   xml:space="preserve"
   inkscape:version="1.4 (86a8ad7, 2024-10-11)"
   sodipodi:docname="Tattoo-legal-logo-traco.svg"
   xmlns:inkscape="http://www.inkscape.org/namespaces/inkscape"
   xmlns:sodipodi="http://sodipodi.sourceforge.net/DTD/sodipodi-0.dtd"
   xmlns="http://www.w3.org/2000/svg"
   xmlns:svg="http://www.w3.org/2000/svg"><sodipodi:namedview
     id="namedview1"
     pagecolor="#ffffff"
     bordercolor="#000000"
     borderopacity="0.25"
     inkscape:showpageshadow="2"
     inkscape:pageopacity="0.0"
     inkscape:pagecheckerboard="0"
     inkscape:deskcolor="#d1d1d1"
     inkscape:document-units="mm"
     showguides="true"
     inkscape:zoom="2.8284272"
     inkscape:cx="-2724.3056"
     inkscape:cy="325.09233"
     inkscape:window-width="1280"
     inkscape:window-height="961"
     inkscape:window-x="-8"
     inkscape:window-y="-8"
     inkscape:window-maximized="1"
     inkscape:current-layer="layer3"><inkscape:page
       x="0"
       y="0"
       width="35.85104"
       height="13.596401"
       id="page2"
       margin="0"
       bleed="0" /></sodipodi:namedview><defs
     id="defs1" /><g
     inkscape:groupmode="layer"
     id="layer3"
     inkscape:label="Camada 2"
     style="display:inline"
     transform="translate(739.57932,-93.801867)"><path
       style="display:inline;fill:#ff5f00;fill-opacity:1;stroke:none;stroke-width:0.132292;stroke-linecap:round;stroke-linejoin:round;stroke-opacity:1"
       d="m -739.57928,94.941769 c 11.8677,-1.284616 23.80709,-1.451533 35.85104,-0.661459 -7.43846,0.486876 -14.74627,1.403016 -20.96822,5.88698 -3.17285,2.71069 -1.32879,9.51609 3.96875,3.63802 -2.42318,8.38582 -12.44531,0.36399 -2.38125,-6.482291 -1.96777,0.390793 -4.64775,3.299151 -6.87917,5.886981 0.38252,-2.14347 1.95413,-5.19304 6.35,-6.813023 -2.02842,0.308623 -3.62863,0.171195 -7.67292,2.579687 1.25554,-2.320991 3.46312,-3.499535 6.48229,-3.704166 -3.6399,-0.110243 -9.3096,-0.220486 -14.75052,-0.330729 z"
       id="path373"
       sodipodi:nodetypes="cccccccccc"
       inkscape:export-filename="..\tattoo_legal\public\images\detalhe-titulo-laranja.png"
       inkscape:export-xdpi="96"
       inkscape:export-ydpi="96" /></g></svg>
